<?xml version="1.0" encoding="UTF-8" standalone="no"?>
<svg
   xmlns:dc="http://purl.org/dc/elements/1.1/"
   xmlns:cc="http://creativecommons.org/ns#"
   xmlns:rdf="http://www.w3.org/1999/02/22-rdf-syntax-ns#"
   xmlns:svg="http://www.w3.org/2000/svg"
   xmlns="http://www.w3.org/2000/svg"
   xmlns:sodipodi="http://sodipodi.sourceforge.net/DTD/sodipodi-0.dtd"
   xmlns:inkscape="http://www.inkscape.org/namespaces/inkscape"
   inkscape:version="1.0 (1.0+r73+1)"
   sodipodi:docname="icons8-gift.svg"
   id="svg104"
   version="1.1"
   height="360"
   width="430"
   viewBox="0 0 86 72">
  <metadata
     id="metadata110">
    <rdf:RDF>
      <cc:Work
         rdf:about="">
        <dc:format>image/svg+xml</dc:format>
        <dc:type
           rdf:resource="http://purl.org/dc/dcmitype/StillImage" />
        <dc:title></dc:title>
      </cc:Work>
    </rdf:RDF>
  </metadata>
  <defs
     id="defs108" />
  <sodipodi:namedview
     inkscape:current-layer="svg104"
     inkscape:window-maximized="1"
     inkscape:window-y="0"
     inkscape:window-x="0"
     inkscape:cy="188.58545"
     inkscape:cx="182.57506"
     inkscape:zoom="1.2954196"
     showgrid="false"
     id="namedview106"
     inkscape:window-height="704"
     inkscape:window-width="1366"
     inkscape:pageshadow="2"
     inkscape:pageopacity="0"
     guidetolerance="10"
     gridtolerance="10"
     objecttolerance="10"
     borderopacity="1"
     bordercolor="#666666"
     pagecolor="#ffffff" />
  <g
     transform="translate(-5,-14)"
     id="g163">
    <path
       fill="#c7ede6"
       d="M 87.215,56.71 C 88.35,54.555 89,52.105 89,49.5 89,42.879 84.841,37.243 78.999,35.022 78.999,35.015 79,35.008 79,35 79,23.402 69.598,14 58,14 48.216,14 40.019,20.701 37.687,29.757 36.211,29.272 34.638,29 33,29 25.308,29 18.977,34.793 18.11,42.252 12.906,43.353 9,47.969 9,53.5 9,59.851 14.149,65 20.5,65 20.677,65 20.852,64.988 21.026,64.978 21.022,65.153 21,65.324 21,65.5 21,76.822 30.178,86 41.5,86 47.937,86 53.675,83.028 57.434,78.386 59.612,80.611 62.64,82 66,82 70.65,82 74.674,79.35 76.666,75.482 77.718,75.817 78.837,76 80,76 c 6.075,0 11,-4.925 11,-11 0,-3.311 -1.47,-6.273 -3.785,-8.29 z"
       id="path2" />
    <path
       fill="#fdfcef"
       d="M 76.5,59.5 V 60 h 3 v -0.5 c 0,0 4.242,0 5.5,0 2.485,0 4.5,-2.015 4.5,-4.5 0,-2.333 -1.782,-4.229 -4.055,-4.455 C 85.467,50.364 85.5,50.187 85.5,50 c 0,-2.485 -2.015,-4.5 -4.5,-4.5 -1.438,0 -2.703,0.686 -3.527,1.736 C 77.333,44.6 75.171,42.5 72.5,42.5 c -2.761,0 -5,2.239 -5,5 0,0.446 0.077,0.87 0.187,1.282 C 67.045,48.005 66.086,47.5 65,47.5 c -1.781,0 -3.234,1.335 -3.455,3.055 C 61.364,50.533 61.187,50.5 61,50.5 c -2.485,0 -4.5,2.015 -4.5,4.5 0,2.485 2.015,4.5 4.5,4.5 2.485,0 9.5,0 9.5,0 z"
       id="path4" />
    <path
       fill="#472b29"
       d="m 72.5,42 c -3.033,0 -5.5,2.467 -5.5,5.5 0,0.016 0,0.031 0,0.047 C 66.398,47.192 65.71,47 65,47 63.169,47 61.589,48.261 61.142,50.005 61.095,50.002 61.048,50 61,50 c -2.757,0 -5,2.243 -5,5 0,2.757 2.243,5 5,5 H 76.5 C 76.776,60 77,59.776 77,59.5 77,59.224 76.776,59 76.5,59 H 61 c -2.206,0 -4,-1.794 -4,-4 0,-2.206 1.794,-4 4,-4 0.117,0 0.23,0.017 0.343,0.032 l 0.141,0.019 c 0.021,0.003 0.041,0.004 0.062,0.004 0.246,0 0.462,-0.185 0.495,-0.437 C 62.232,49.125 63.504,48 65,48 c 0.885,0 1.723,0.401 2.301,1.1 0.098,0.118 0.241,0.182 0.386,0.182 0.078,0 0.156,-0.018 0.228,-0.056 0.209,-0.107 0.314,-0.346 0.254,-0.573 C 68.054,48.218 68,47.852 68,47.5 68,45.019 70.019,43 72.5,43 c 2.381,0 4.347,1.872 4.474,4.263 0.011,0.208 0.15,0.387 0.349,0.45 0.05,0.016 0.101,0.024 0.152,0.024 0.15,0 0.296,-0.069 0.392,-0.192 C 78.638,46.563 79.779,46 81,46 c 2.206,0 4,1.794 4,4 0,0.117 -0.017,0.23 -0.032,0.343 l -0.019,0.141 c -0.016,0.134 0.022,0.268 0.106,0.373 0.084,0.105 0.207,0.172 0.34,0.185 C 87.451,51.247 89,52.949 89,55 c 0,2.206 -1.794,4 -4,4 h -5.5 c -0.276,0 -0.5,0.224 -0.5,0.5 0,0.276 0.224,0.5 0.5,0.5 H 85 c 2.757,0 5,-2.243 5,-5 0,-2.397 -1.689,-4.413 -4.003,-4.877 C 85.999,50.082 86,50.041 86,50 86,47.243 83.757,45 81,45 79.824,45 78.707,45.416 77.817,46.164 77.219,43.76 75.055,42 72.5,42 Z"
       id="path6" />
    <path
       fill="#472b29"
       d="m 71,49 c -1.403,0 -2.609,0.999 -2.913,2.341 C 67.72,51.119 67.301,51 66.875,51 65.673,51 64.677,51.897 64.522,53.068 64.319,53.022 64.126,53 63.937,53 c -1.529,0 -2.811,1.2 -2.918,2.732 -0.009,0.138 0.095,0.258 0.232,0.268 0.006,0 0.012,0 0.018,0 0.13,0 0.24,-0.101 0.249,-0.232 0.089,-1.271 1.151,-2.268 2.419,-2.268 0.229,0 0.47,0.042 0.738,0.127 0.022,0.007 0.045,0.01 0.067,0.01 0.055,0 0.11,-0.02 0.156,-0.054 C 64.962,53.537 65,53.455 65,53.375 65,52.341 65.841,51.5 66.875,51.5 c 0.447,0 0.885,0.168 1.231,0.473 0.047,0.041 0.106,0.063 0.165,0.063 0.032,0 0.063,-0.006 0.093,-0.019 0.088,-0.035 0.148,-0.117 0.155,-0.212 C 68.623,50.512 69.712,49.5 71,49.5 c 0.208,0 0.425,0.034 0.682,0.107 0.023,0.007 0.047,0.01 0.07,0.01 0.109,0 0.207,-0.073 0.239,-0.182 0.038,-0.133 -0.039,-0.271 -0.172,-0.309 C 71.517,49.04 71.256,49 71,49 Z m 13.883,1.5 c -1.326,0 -2.508,0.897 -2.874,2.182 -0.038,0.133 0.039,0.271 0.172,0.309 0.024,0.006 0.047,0.009 0.069,0.009 0.109,0 0.209,-0.072 0.24,-0.182 0.305,-1.07 1.289,-1.818 2.393,-1.818 0.117,0 0.23,0.014 0.342,0.029 0.012,0.002 0.023,0.003 0.035,0.003 0.121,0 0.229,-0.092 0.246,-0.217 0.019,-0.137 -0.077,-0.263 -0.214,-0.281 C 85.158,50.516 85.022,50.5 84.883,50.5 Z"
       id="path8" />
    <path
       fill="#ffffff"
       d="M 15.5,51 H 5.5 C 5.224,51 5,50.776 5,50.5 5,50.224 5.224,50 5.5,50 h 10 c 0.276,0 0.5,0.224 0.5,0.5 0,0.276 -0.223,0.5 -0.5,0.5 z m 3,0 h -1 C 17.224,51 17,50.776 17,50.5 17,50.224 17.224,50 17.5,50 h 1 c 0.276,0 0.5,0.224 0.5,0.5 0,0.276 -0.223,0.5 -0.5,0.5 z m 4.991,2 H 14.5 C 14.224,53 14,52.776 14,52.5 14,52.224 14.224,52 14.5,52 h 8.991 c 0.276,0 0.5,0.224 0.5,0.5 0,0.276 -0.224,0.5 -0.5,0.5 z M 12.5,53 h -1 C 11.224,53 11,52.776 11,52.5 11,52.224 11.224,52 11.5,52 h 1 c 0.276,0 0.5,0.224 0.5,0.5 0,0.276 -0.223,0.5 -0.5,0.5 z m -3,0 h -2 C 7.224,53 7,52.776 7,52.5 7,52.224 7.224,52 7.5,52 h 2 C 9.776,52 10,52.224 10,52.5 10,52.776 9.777,53 9.5,53 Z m 6,2 h -2 C 13.224,55 13,54.776 13,54.5 13,54.224 13.224,54 13.5,54 h 2 c 0.276,0 0.5,0.224 0.5,0.5 0,0.276 -0.224,0.5 -0.5,0.5 z m 3,-9 c -0.177,0 -0.823,0 -1,0 -0.276,0 -0.5,0.224 -0.5,0.5 0,0.276 0.224,0.5 0.5,0.5 0.177,0 0.823,0 1,0 C 18.776,47 19,46.776 19,46.5 19,46.224 18.776,46 18.5,46 Z m 0,2 c -0.177,0 -4.823,0 -5,0 -0.276,0 -0.5,0.224 -0.5,0.5 0,0.276 0.224,0.5 0.5,0.5 0.177,0 4.823,0 5,0 C 18.776,49 19,48.776 19,48.5 19,48.224 18.776,48 18.5,48 Z m 5,2 c -0.177,0 -2.823,0 -3,0 -0.276,0 -0.5,0.224 -0.5,0.5 0,0.276 0.224,0.5 0.5,0.5 0.177,0 2.823,0 3,0 C 23.776,51 24,50.776 24,50.5 24,50.224 23.776,50 23.5,50 Z m 49,-26 h -10 C 62.224,24 62,23.776 62,23.5 62,23.224 62.224,23 62.5,23 h 10 c 0.276,0 0.5,0.224 0.5,0.5 0,0.276 -0.224,0.5 -0.5,0.5 z m 4,0 h -2 C 74.224,24 74,23.776 74,23.5 74,23.224 74.224,23 74.5,23 h 2 c 0.276,0 0.5,0.224 0.5,0.5 0,0.276 -0.224,0.5 -0.5,0.5 z m 5,2 h -10 C 71.224,26 71,25.776 71,25.5 71,25.224 71.224,25 71.5,25 h 10 c 0.276,0 0.5,0.224 0.5,0.5 0,0.276 -0.223,0.5 -0.5,0.5 z m -12,0 h -1 C 68.224,26 68,25.776 68,25.5 68,25.224 68.224,25 68.5,25 h 1 c 0.276,0 0.5,0.224 0.5,0.5 0,0.276 -0.224,0.5 -0.5,0.5 z m -3.03,0 H 64.5 C 64.224,26 64,25.776 64,25.5 64,25.224 64.224,25 64.5,25 h 1.97 c 0.276,0 0.5,0.224 0.5,0.5 0,0.276 -0.224,0.5 -0.5,0.5 z m 9.03,-4 h -5 C 70.224,22 70,21.776 70,21.5 70,21.224 70.224,21 70.5,21 h 5 c 0.276,0 0.5,0.224 0.5,0.5 0,0.276 -0.223,0.5 -0.5,0.5 z m -3,6 h -2 C 70.224,28 70,27.776 70,27.5 70,27.224 70.224,27 70.5,27 h 2 c 0.276,0 0.5,0.224 0.5,0.5 0,0.276 -0.224,0.5 -0.5,0.5 z"
       id="path10" />
    <g
       id="g16">
      <path
         fill="#fde751"
         d="m 48.218,35.217 c -0.935,-5.585 -9.985,-9.169 -11.631,-2.929 -1.462,8.552 11.631,6.495 11.631,6.495 z"
         id="path12" />
      <path
         fill="#472b29"
         d="m 45.034,39.703 c -2.523,0 -5.882,-0.412 -7.785,-2.343 -1.267,-1.282 -1.721,-3.029 -1.352,-5.19 0.682,-2.595 2.525,-3.978 5.105,-3.863 3.294,0.151 7.257,2.918 7.906,6.796 l 0.01,0.115 v 4.164 l -0.592,0.093 c -0.131,0.02 -1.501,0.228 -3.292,0.228 z M 40.707,29.699 c -1.289,0 -2.848,0.512 -3.442,2.768 -0.28,1.654 0.036,2.954 0.98,3.911 2.286,2.315 7.515,1.976 9.273,1.788 v -2.888 c -0.56,-3.135 -3.904,-5.45 -6.58,-5.573 -0.076,-0.004 -0.153,-0.006 -0.231,-0.006 z"
         id="path14" />
    </g>
    <g
       id="g22">
      <path
         fill="#fde751"
         d="m 52.894,35.217 c 0.935,-5.585 9.985,-9.169 11.631,-2.929 1.462,8.552 -11.631,6.495 -11.631,6.495 z"
         id="path18" />
      <path
         fill="#472b29"
         d="m 56.078,39.703 c -1.79,0 -3.16,-0.208 -3.292,-0.229 l -0.592,-0.093 0.01,-4.279 c 0.648,-3.877 4.611,-6.645 7.904,-6.796 2.555,-0.133 4.425,1.268 5.093,3.803 0.383,2.222 -0.071,3.969 -1.338,5.252 -1.903,1.929 -5.261,2.342 -7.785,2.342 z m -2.483,-1.538 c 1.764,0.189 6.994,0.524 9.273,-1.788 0.943,-0.957 1.26,-2.256 0.966,-3.971 -0.617,-2.333 -2.324,-2.774 -3.661,-2.701 -2.676,0.123 -6.02,2.438 -6.578,5.572 z"
         id="path20" />
    </g>
    <g
       id="g28">
      <path
         fill="#ea5167"
         d="M 36.338,74.3 C 32.678,74.3 29.7,71.322 29.7,67.662 V 46.338 c 0,-3.66 2.978,-6.638 6.638,-6.638 h 28.324 c 3.66,0 6.638,2.978 6.638,6.638 v 21.324 c 0,3.66 -2.978,6.638 -6.638,6.638 H 36.338 Z"
         id="path24" />
      <path
         fill="#472b29"
         d="m 64.662,40.4 c 3.274,0 5.938,2.664 5.938,5.938 v 21.324 c 0,3.274 -2.664,5.938 -5.938,5.938 H 36.338 C 33.064,73.6 30.4,70.936 30.4,67.662 V 46.338 c 0,-3.274 2.664,-5.938 5.938,-5.938 h 28.324 m 0,-1.4 H 36.338 C 32.302,39 29,42.302 29,46.338 V 67.662 C 29,71.698 32.302,75 36.338,75 H 64.662 C 68.698,75 72,71.698 72,67.662 V 46.338 C 72,42.302 68.698,39 64.662,39 Z"
         id="path26" />
    </g>
    <g
       id="g34">
      <path
         fill="#fde751"
         d="m 50.114,42.439 c -1.433,0 -2.599,-1.165 -2.599,-2.598 v -2.544 c 0,-1.433 1.166,-2.598 2.599,-2.598 h 0.885 c 1.433,0 2.598,1.165 2.598,2.598 v 2.544 c 0,1.433 -1.165,2.598 -2.598,2.598 z"
         id="path30" />
      <path
         fill="#472b29"
         d="m 50.999,35.4 c 1.047,0 1.898,0.852 1.898,1.898 v 2.543 c 0,1.047 -0.852,1.898 -1.898,1.898 h -0.885 c -1.047,0 -1.898,-0.852 -1.898,-1.898 v -2.543 c 0,-1.047 0.852,-1.898 1.898,-1.898 h 0.885 m 0,-1.4 h -0.885 c -1.814,0 -3.298,1.484 -3.298,3.298 v 2.543 c 0,1.814 1.484,3.298 3.298,3.298 h 0.885 c 1.814,0 3.298,-1.484 3.298,-3.298 V 37.298 C 54.297,35.484 52.813,34 50.999,34 Z"
         id="path32" />
    </g>
    <g
       id="g40">
      <path
         fill="#ea5167"
         d="M 29.803,50.3 C 29.195,50.3 28.7,49.806 28.7,49.197 v -3.986 c 0,-3.59 2.921,-6.511 6.511,-6.511 h 30.578 c 3.59,0 6.511,2.921 6.511,6.511 v 3.986 c 0,0.608 -0.494,1.103 -1.103,1.103 z"
         id="path36" />
      <path
         fill="#472b29"
         d="m 65.789,39.4 c 3.204,0 5.811,2.607 5.811,5.811 v 3.986 c 0,0.222 -0.181,0.403 -0.403,0.403 H 29.803 C 29.581,49.6 29.4,49.419 29.4,49.197 v -3.986 c 0,-3.204 2.607,-5.811 5.811,-5.811 h 30.578 m 0,-1.4 H 35.211 C 31.229,38 28,41.229 28,45.211 v 3.986 C 28,50.193 28.807,51 29.803,51 H 71.197 C 72.193,51 73,50.193 73,49.197 V 45.211 C 73,41.229 69.771,38 65.789,38 Z"
         id="path38" />
    </g>
    <g
       id="g46">
      <path
         fill="#fde751"
         d="m 59.505,32.12 c 0.782,-0.198 1.61,-0.162 2.429,0.284"
         id="path42" />
      <path
         fill="#472b29"
         d="m 61.934,32.654 c -0.041,0 -0.082,-0.01 -0.12,-0.03 -0.69,-0.377 -1.445,-0.467 -2.247,-0.262 -0.136,0.028 -0.271,-0.047 -0.304,-0.181 -0.034,-0.134 0.047,-0.27 0.181,-0.304 0.927,-0.234 1.806,-0.131 2.61,0.307 0.121,0.066 0.165,0.218 0.1,0.34 -0.047,0.083 -0.133,0.13 -0.22,0.13 z"
         id="path44" />
    </g>
    <g
       id="g52">
      <path
         fill="#fde751"
         d="m 55.232,35.406 c 0,0 1.084,-1.515 2.615,-2.522"
         id="path48" />
      <path
         fill="#472b29"
         d="m 55.232,35.656 c -0.051,0 -0.102,-0.016 -0.146,-0.047 -0.112,-0.08 -0.138,-0.236 -0.058,-0.349 0.045,-0.063 1.128,-1.564 2.681,-2.586 0.115,-0.074 0.271,-0.043 0.347,0.071 0.076,0.115 0.044,0.271 -0.071,0.347 -1.474,0.969 -2.539,2.444 -2.55,2.459 -0.048,0.069 -0.124,0.105 -0.203,0.105 z"
         id="path50" />
    </g>
    <g
       id="g58">
      <path
         fill="#fde751"
         d="m 39.218,32.052 c 0,0 3.799,-0.955 6.371,3.375"
         id="path54" />
      <path
         fill="#472b29"
         d="m 45.588,35.677 c -0.085,0 -0.168,-0.044 -0.215,-0.122 -2.448,-4.125 -6.059,-3.269 -6.095,-3.261 -0.142,0.037 -0.27,-0.048 -0.303,-0.182 -0.034,-0.134 0.047,-0.27 0.182,-0.303 0.039,-0.011 4.009,-0.95 6.646,3.489 0.07,0.119 0.031,0.272 -0.087,0.343 -0.04,0.024 -0.084,0.036 -0.128,0.036 z"
         id="path56" />
    </g>
    <g
       id="g62">
      <path
         fill="#472b29"
         d="M 62.938,71 H 49.5 C 49.224,71 49,70.776 49,70.5 49,70.224 49.224,70 49.5,70 H 62.938 C 65.178,70 67,68.178 67,65.938 V 63.5 c 0,-0.276 0.224,-0.5 0.5,-0.5 0.276,0 0.5,0.224 0.5,0.5 v 2.438 C 68,68.729 65.729,71 62.938,71 Z"
         id="path60" />
    </g>
    <g
       id="g66">
      <path
         fill="#472b29"
         d="M 67.5,61 C 67.224,61 67,60.776 67,60.5 v -6 c 0,-0.276 0.224,-0.5 0.5,-0.5 0.276,0 0.5,0.224 0.5,0.5 v 6 c 0,0.276 -0.224,0.5 -0.5,0.5 z"
         id="path64" />
    </g>
    <g
       id="g70">
      <path
         fill="#472b29"
         d="M 44.5,71 H 38.062 C 35.271,71 33,68.729 33,65.938 V 63.5 c 0,-0.276 0.224,-0.5 0.5,-0.5 0.276,0 0.5,0.224 0.5,0.5 v 2.438 C 34,68.178 35.822,70 38.062,70 H 44.5 c 0.276,0 0.5,0.224 0.5,0.5 0,0.276 -0.224,0.5 -0.5,0.5 z"
         id="path68" />
    </g>
    <g
       id="g74">
      <path
         fill="#472b29"
         d="m 33.256,61.94 c -0.276,0 -0.5,-0.224 -0.5,-0.5 v -3.741 c 0,-0.276 0.224,-0.5 0.5,-0.5 0.276,0 0.5,0.224 0.5,0.5 v 3.741 c 0,0.277 -0.224,0.5 -0.5,0.5 z"
         id="path72" />
    </g>
    <g
       id="g78">
      <path
         fill="#472b29"
         d="M 33.5,56 C 33.224,56 33,55.776 33,55.5 v -2 c 0,-0.276 0.224,-0.5 0.5,-0.5 0.276,0 0.5,0.224 0.5,0.5 v 2 c 0,0.276 -0.224,0.5 -0.5,0.5 z"
         id="path76" />
    </g>
    <g
       id="g84">
      <path
         fill="#fde751"
         d="m 46.7,39.7 h 7.6 v 34.6 h -7.6 z"
         id="path80" />
      <path
         fill="#472b29"
         d="M 53.6,40.4 V 73.6 H 47.4 V 40.4 h 6.2 M 55,39 h -9 v 36 h 9 z"
         id="path82" />
    </g>
    <g
       id="g88">
      <path
         fill="#472b29"
         d="m 51.5,46.75 c -0.138,0 -0.25,-0.112 -0.25,-0.25 v -5 c 0,-0.138 0.112,-0.25 0.25,-0.25 0.138,0 0.25,0.112 0.25,0.25 v 5 c 0,0.138 -0.112,0.25 -0.25,0.25 z"
         id="path86" />
    </g>
    <g
       id="g92">
      <path
         fill="#472b29"
         d="m 51.5,70.75 c -0.138,0 -0.25,-0.112 -0.25,-0.25 v -21 c 0,-0.138 0.112,-0.25 0.25,-0.25 0.138,0 0.25,0.112 0.25,0.25 v 21 c 0,0.138 -0.112,0.25 -0.25,0.25 z"
         id="path90" />
    </g>
    <g
       id="g102">
      <path
         fill="#fdfcef"
         d="m 34.5,67.5 c 0,0 1.567,0 3.5,0 1.933,0 3.5,-1.567 3.5,-3.5 0,-1.781 -1.335,-3.234 -3.055,-3.455 C 38.473,60.366 38.5,60.187 38.5,60 c 0,-1.933 -1.567,-3.5 -3.5,-3.5 -1.032,0 -1.95,0.455 -2.59,1.165 C 32.026,55.857 30.423,54.5 28.5,54.5 c -2.209,0 -4,1.791 -4,4 0,0.191 0.03,0.374 0.056,0.558 C 24.128,58.714 23.592,58.5 23,58.5 c -1.228,0 -2.245,0.887 -2.455,2.055 C 20.366,60.527 20.187,60.5 20,60.5 c -1.933,0 -3.5,1.567 -3.5,3.5 0,1.933 1.567,3.5 3.5,3.5 1.933,0 7.5,0 7.5,0 V 68 h 7 z"
         id="path94" />
      <path
         fill="#472b29"
         d="M 36.25,63 C 36.112,63 36,62.888 36,62.75 c 0,-1.223 0.995,-2.218 2.218,-2.218 0.034,0.009 0.737,-10e-4 1.244,0.136 0.133,0.036 0.212,0.173 0.176,0.306 -0.036,0.134 -0.173,0.213 -0.306,0.176 -0.444,-0.12 -1.1,-0.12 -1.113,-0.118 -0.948,0 -1.719,0.771 -1.719,1.718 0,0.138 -0.112,0.25 -0.25,0.25 z m -6.75,4 a 0.5,0.5 0 1 0 0,1 0.5,0.5 0 1 0 0,-1 z"
         id="path96" />
      <path
         fill="#472b29"
         d="M 38,68 H 34.5 C 34.224,68 34,67.776 34,67.5 34,67.224 34.224,67 34.5,67 H 38 c 1.654,0 3,-1.346 3,-3 0,-1.496 -1.125,-2.768 -2.618,-2.959 C 38.248,61.023 38.127,60.953 38.046,60.845 37.965,60.737 37.931,60.601 37.952,60.468 37.975,60.314 38,60.16 38,60 c 0,-1.654 -1.346,-3 -3,-3 -0.85,0 -1.638,0.355 -2.219,1 -0.125,0.139 -0.321,0.198 -0.5,0.148 C 32.099,58.099 31.96,57.953 31.921,57.769 31.58,56.165 30.141,55 28.5,55 26.57,55 25,56.57 25,58.5 c 0,0.143 0.021,0.28 0.041,0.418 0.029,0.203 -0.063,0.438 -0.242,0.54 -0.179,0.102 -0.396,0.118 -0.556,-0.01 C 23.878,59.155 23.449,59 23,59 c -0.966,0 -1.792,0.691 -1.963,1.644 -0.048,0.267 -0.296,0.446 -0.569,0.405 C 20.314,61.025 20.16,61 20,61 c -1.654,0 -3,1.346 -3,3 0,1.654 1.346,3 3,3 h 7.5 c 0.276,0 0.5,0.224 0.5,0.5 0,0.276 -0.224,0.5 -0.5,0.5 H 20 c -2.206,0 -4,-1.794 -4,-4 0,-2.206 1.794,-4 4,-4 0.059,0 0.116,0.002 0.174,0.006 C 20.588,58.82 21.711,58 23,58 c 0.349,0 0.689,0.061 1.011,0.18 C 24.176,55.847 26.126,54 28.5,54 c 1.831,0 3.466,1.127 4.153,2.774 C 33.333,56.276 34.155,56 35,56 c 2.206,0 4,1.794 4,4 0,0.048 -10e-4,0.095 -0.004,0.142 C 40.739,60.59 42,62.169 42,64 c 0,2.206 -1.794,4 -4,4 z"
         id="path98" />
      <path
         fill="#472b29"
         d="m 32.5,67 c -0.159,0 -0.841,0 -1,0 -0.276,0 -0.5,0.224 -0.5,0.5 0,0.276 0.224,0.5 0.5,0.5 0.159,0 0.841,0 1,0 C 32.776,68 33,67.776 33,67.5 33,67.224 32.776,67 32.5,67 Z"
         id="path100" />
    </g>
  </g>
</svg>
